<svg version="1" xmlns="http://www.w3.org/2000/svg" width="266.667" height="266.667" viewBox="0 0 200.000000 200.000000"><path d="M61.4 19.9c-.2.2-.4 17.4-.4 38.1v37.7l7.3 6.5c3.9 3.6 8.6 7.6 10.2 9l3 2.4 25-.1c28.2-.1 29.4-.4 34.1-7.4l2.5-3.9.1-29.9c0-16.4-.2-30.9-.6-32.1-.7-2.2-5.9-5.6-6.9-4.6-.3.4-1.2-1-2-2.9-1.1-2.5-2.3-3.7-4.4-4.1-2.2-.5-3.3-1.6-4.2-4.1-.7-1.9-2.2-3.7-3.4-4.1-2.3-.8-59.5-1.2-60.3-.5zm59.4 37.8c.1 18.3-.1 33.4-.5 33.4-.5.1-12.8.2-27.5.3l-26.8.1V24.1l27.3.2 27.2.2.3 33.2zm8.4-24c.6 3.3.4 60.2-.3 61.5-2.5 4.8-2.5 4.8-29.8 4.8-24.1 0-25.9-.1-27.5-1.9-1.7-1.9-1.3-1.9 24-1.9h25.8l2.3-2.7c2.3-2.6 2.3-2.9 2.3-31.6 0-25 .2-28.9 1.5-28.9.8 0 1.6.3 1.7.7zm9.3 37.5c-.1 30.4-.2 31.4-4.5 35.3-2.1 1.9-3.9 2-26.4 2.3-23.1.3-24.3.2-26.7-1.7l-2.4-2 7.5-.1c4.1-.1 14.5-.1 23.1-.1 13.5 0 16-.3 18.7-1.9 6.5-4 6.6-4.4 6.8-34.9.1-15.2.2-27.7.3-27.9 0-.1.9.2 1.9.7 1.6.8 1.7 3.2 1.7 30.3zM11.7 138.6c-1.3 1.3-.7 3.4.9 3.4 1.5 0 1.6 1.2 1.1 10.2-.4 5.7-.7 11.1-.7 12 0 1-.7 1.8-1.5 1.8-2.2 0-1.9 4 .3 4.1.9 0 3 .2 4.5.3 1.6.1 3.6-.3 4.5-1 1.4-1 1.3-1.3-.4-2.8-1.8-1.5-2-2.7-1.6-9.4.2-4.2.5-7.8.7-8 .1-.1 1.8 3.8 3.6 8.8 3 8 3.7 9 5.9 9 2.3 0 2.8-.9 5.3-7.8 3.9-10.8 4.6-11.8 4.8-5.7.1 2.7.2 6.5.3 8.4.2 1.9-.3 3.5-1.1 3.8-.7.3-1.3 1.5-1.3 2.7 0 2.1 1.7 2.4 10.6 1.7 1.8-.2 1.2-3.3-.8-3.9-1.5-.4-1.8-1.5-1.9-7.6-.1-3.9-.3-9-.5-11.4-.2-3.1.1-4.4 1.1-4.9.8-.3 1.5-1.4 1.5-2.5 0-1.7-.6-1.9-4.7-1.6l-4.8.3-3.9 10.2c-2.2 5.7-4.2 10-4.5 9.7-.3-.3-2.2-4.9-4.2-10.2l-3.7-9.7-4.4-.3c-2.4-.2-4.7 0-5.1.4zM77.8 139.7c-.6 2.8.6 6.8 2 6.7.6-.1 1.7-.2 2.2-.3.6 0 1-.8 1-1.6 0-.9.9-1.5 2.3-1.5 2.2 0 2.3.2 2.2 11.2 0 9-.3 11.2-1.5 11.6-2.1.7-3 2.4-2 3.7.7.8 4.8 1 11.8.6 1.9-.1 1.5-4.1-.5-4.1-1.6 0-1.8-1.2-1.9-11.5 0-11.4 0-11.5 2.3-11.5 1.6 0 2.3.6 2.3 2 0 1.5.6 1.9 2.3 1.6 1.8-.2 2.3-1 2.5-4.4l.3-4.2H90.7c-11 0-12.5.2-12.9 1.7zM112.3 146.5c-8 3.4-9.2 18.2-1.8 22.6 1.6 1.1 4.2 1.9 5.6 1.9 3.9 0 8.9-2 8.9-3.6 0-2-2.2-2.7-5.2-1.5-3.3 1.2-7.2-.7-7.6-3.8-.2-1.3 0-2.1.6-1.7 1.6.9 8.6-1.4 10.5-3.6 2.5-2.9 2.3-8.4-.4-9.9-3.4-1.8-7.1-2-10.6-.4zm7.7 5.7c0 1.2-1.2 2.4-3.2 3.2-3.9 1.7-5.7 1.1-5.1-1.5 1.2-4.4 8.3-5.9 8.3-1.7zM139.1 146.9c-1.6 1.6-2 1.7-2.5.5-.8-2.1-8.5-1.9-8.2.2.1.8.9 2 1.7 2.4 1 .7 1.4 3 1.5 7.7.2 5.5-.2 7.2-1.8 9-1.9 2-1.9 2.2-.1 3 1 .5 3.4.8 5.3.7 1.9-.1 4.3-.3 5.3-.3 1-.1 1.7-.9 1.7-2.3 0-1.2-.3-1.8-.6-1.5-.4.3-1.4.2-2.4-.3-1.4-.7-1.7-2.1-1.5-6.9.2-6 1.6-9.1 4.1-9.1.7 0 1.6.9 1.9 2.1 1.1 3.2 3.9 1.9 4.3-2 .5-5.2-4.8-7.1-8.7-3.2zM163.5 145.7c-1.1.3-2.6 1-3.2 1.5-.9.7-1.3.7-1.3-.1 0-1.8-7.7-1.4-8.4.5-.4 1.1.1 1.8 1.4 2.1 1.8.5 2 1.4 2 8.3 0 6-.3 7.9-1.5 8.4-1.7.6-2.1 3.5-.5 3.7.6 0 2.4.1 4 .1 6.6 0 7-.1 6.3-2-.4-.9-1.1-2-1.6-2.3-.5-.4-.9-3.7-.9-7.4 0-7.1.7-8.5 5-8.5 2.6 0 2.4-.5 2.8 8.7.2 5.8-.1 7.3-1.2 7.3-.8 0-1.4 1-1.4 2.2 0 2.1.4 2.3 4.7 2.1 2.7-.1 5.1-.2 5.6-.2 1.3-.2.7-4.1-.6-4.1-1 0-1.3-1.7-1.1-6.9.1-3.8.5-7.4.8-8 .8-1.2 6.5-1.5 6.7-.4.8 5.7.2 14-1.1 15.3-3.7 3.7-1.7 4.6 8.5 4.1 1.9-.1 2-4.1.1-4.1-1.1 0-1.4-1.6-1.3-7.5.1-8.6-1.3-12.1-5.3-13-2.8-.6-7.4.7-8.4 2.4-.4.6-1.4.3-2.6-.9-2-2-3.6-2.2-7.5-1.3zM50.6 147.5c-.3.8.2 1.9 1.1 2.4 1.3.7 1.6 2.2 1.5 6.2-.1 4.3 1.3 11.9 2.1 11.9.1 0 1.7.4 3.4.9 2.5.7 4 .5 6.8-.9l3.6-1.9-.4 3.5c-.5 3.9-2 6-4.5 6.6-2.6.7-6.2-.9-6.2-2.7 0-.9-.9-1.5-2.3-1.5-1.9 0-2.3.6-2.5 3.4-.2 2.8.2 3.6 2 4.2 3.9 1.3 10.2 1.1 13-.3 4.5-2.2 5.2-4.7 5.3-19.6l.2-13.7h-4.4c-3.6 0-4.3.3-4.3 2 0 1.1.7 2 1.5 2 1.2 0 1.5 1.3 1.5 5.9 0 6.3-1.5 9.1-4.9 9.1-3.3 0-4.1-2.2-4.1-10.7V146h-3.9c-2.5 0-4.1.5-4.5 1.5z"/></svg>