<?xml version="1.0" standalone="no"?>
<!DOCTYPE svg PUBLIC "-//W3C//DTD SVG 20010904//EN"
 "http://www.w3.org/TR/2001/REC-SVG-20010904/DTD/svg10.dtd">
<svg version="1.0" xmlns="http://www.w3.org/2000/svg"
 width="512.000000pt" height="512.000000pt" viewBox="0 0 512.000000 512.000000"
 preserveAspectRatio="xMidYMid meet">
<metadata>
Created by potrace 1.11, written by Peter Selinger 2001-2013
</metadata>
<g transform="translate(0.000000,512.000000) scale(0.100000,-0.100000)"
fill="#000000" stroke="none">
<path d="M905 5109 c-229 -34 -447 -148 -612 -322 -149 -157 -240 -339 -277
-552 -16 -91 -14 -290 3 -375 50 -248 198 -486 394 -637 l29 -22 0 -1528 c0
-1629 -2 -1563 46 -1616 9 -11 34 -28 54 -38 36 -18 101 -19 2235 -19 2117 0
2199 1 2238 19 48 22 78 54 94 100 8 25 11 610 11 2225 -1 2110 -1 2193 -19
2232 -22 48 -60 80 -110 93 -22 6 -637 10 -1554 9 l-1517 0 -22 28 c-25 33
-148 156 -193 194 -93 77 -284 165 -421 195 -91 19 -292 27 -379 14z"/>
</g>
</svg>
