<?xml version="1.0" standalone="no"?>
<!DOCTYPE svg PUBLIC "-//W3C//DTD SVG 20010904//EN"
 "http://www.w3.org/TR/2001/REC-SVG-20010904/DTD/svg10.dtd">
<svg version="1.0" xmlns="http://www.w3.org/2000/svg"
 width="500.000000pt" height="500.000000pt" viewBox="0 0 500.000000 500.000000"
 preserveAspectRatio="xMidYMid meet">
<metadata>
Created by potrace 1.11, written by Peter Selinger 2001-2013
</metadata>
<g transform="translate(0.000000,500.000000) scale(0.100000,-0.100000)"
fill="#000000" stroke="none">
<path d="M712 4784 c-282 -60 -514 -276 -604 -564 -20 -64 -23 -96 -23 -220 0
-124 3 -156 23 -220 63 -201 201 -378 364 -469 l47 -26 3 -1195 3 -1195 29
-70 c76 -183 217 -316 402 -382 l79 -28 1385 -2 c990 -2 1396 0 1425 8 120 33
156 46 215 78 212 112 354 311 390 548 7 45 10 487 8 1333 l-3 1265 -24 70
c-83 246 -253 419 -481 490 -49 15 -72 20 -145 30 -11 1 -503 3 -1092 4 -864
1 -1073 3 -1073 14 0 20 -66 153 -102 205 -177 257 -515 391 -826 326z"/>
</g>
</svg>
