<?xml version="1.0" standalone="no"?>
<!DOCTYPE svg PUBLIC "-//W3C//DTD SVG 20010904//EN"
 "http://www.w3.org/TR/2001/REC-SVG-20010904/DTD/svg10.dtd">
<svg version="1.0" xmlns="http://www.w3.org/2000/svg"
 width="500.000000pt" height="500.000000pt" viewBox="0 0 500.000000 500.000000"
 preserveAspectRatio="xMidYMid meet">
<metadata>
Created by potrace 1.11, written by Peter Selinger 2001-2013
</metadata>
<g transform="translate(0.000000,500.000000) scale(0.100000,-0.100000)"
fill="#000000" stroke="none">
<path d="M745 4789 c-349 -69 -597 -323 -656 -673 -40 -234 51 -505 226 -681
154 -154 340 -230 565 -230 129 0 183 10 302 55 123 46 294 184 358 289 l25
40 1448 1 1447 0 0 325 0 325 -1409 0 -1408 0 -22 59 c-12 32 -43 93 -70 134
-113 173 -272 287 -481 344 -68 18 -258 25 -325 12z m347 -102 c118 -38 203
-90 294 -181 90 -90 142 -175 182 -294 23 -67 26 -94 26 -212 0 -118 -3 -145
-26 -212 -40 -119 -92 -204 -182 -294 -90 -90 -175 -142 -294 -182 -67 -23
-94 -26 -212 -26 -118 0 -145 3 -212 26 -119 40 -204 92 -294 182 -90 90 -142
175 -182 294 -23 67 -26 94 -26 212 0 118 3 145 26 212 40 119 92 204 182 294
153 152 317 217 531 210 82 -3 130 -10 187 -29z"/>
<path d="M775 4694 c-260 -41 -492 -248 -571 -509 -26 -84 -26 -286 0 -370 70
-232 259 -421 491 -491 84 -26 286 -26 370 0 232 70 421 259 491 491 26 84 26
286 0 370 -69 230 -260 422 -486 490 -54 16 -237 28 -295 19z m65 -129 c0
-102 -17 -114 -22 -16 -3 78 -1 101 13 101 5 0 9 -38 9 -85z m78 54 c2 -14 -6
-46 -17 -72 -20 -47 -20 -47 -1 -47 11 0 20 -4 20 -10 0 -5 -16 -10 -36 -10
-32 0 -35 2 -28 23 3 12 15 39 26 60 11 22 16 46 13 55 -6 14 -8 13 -16 -6
-10 -26 -29 -21 -29 7 0 25 10 32 40 29 18 -2 26 -10 28 -29z m-279 -113 c9
-10 8 -16 -4 -26 -21 -17 -51 6 -34 26 6 8 15 14 19 14 4 0 13 -6 19 -14z
m582 -40 c-10 -12 -17 -13 -31 -3 -18 10 -18 13 -3 29 15 17 18 17 31 4 12
-12 13 -18 3 -30z m-132 -128 c-7 -13 -50 -82 -96 -154 -79 -123 -83 -133 -71
-158 9 -21 9 -35 0 -58 -13 -36 -21 -20 106 -225 118 -190 120 -193 95 -168
-11 11 -72 93 -137 183 -84 116 -123 162 -137 162 -28 0 -69 44 -69 75 0 33
41 75 74 75 20 0 44 26 131 145 102 139 129 171 104 123z m-670 -32 c9 -10 8
-16 -4 -26 -21 -17 -51 6 -34 26 6 8 15 14 19 14 4 0 13 -6 19 -14z m993 -62
c-14 -10 -20 -10 -31 1 -12 12 -12 17 -1 30 12 14 15 14 31 -1 18 -16 18 -18
1 -30z m-1094 -241 l3 -83 -31 0 c-25 0 -30 4 -30 25 0 14 5 25 10 25 6 0 10
-7 10 -15 0 -8 5 -15 10 -15 6 0 10 11 10 25 0 18 -5 25 -20 25 -17 0 -20 7
-20 51 0 49 1 50 28 47 27 -3 27 -4 30 -85z m1159 0 l3 -83 -30 0 c-27 0 -30
3 -30 30 0 17 5 30 10 30 6 0 10 -9 10 -20 0 -11 5 -20 10 -20 17 0 11 47 -6
54 -15 6 -15 8 1 26 12 13 15 25 9 37 -7 16 -8 16 -11 -4 -6 -34 -23 -28 -23
8 0 27 3 30 28 27 27 -3 27 -4 29 -85z m-1036 -307 c-10 -12 -17 -13 -31 -3
-18 10 -18 13 -3 29 15 17 18 17 31 4 12 -12 13 -18 3 -30z m988 10 c9 -10 8
-16 -4 -26 -21 -17 -51 6 -34 26 6 8 15 14 19 14 4 0 13 -6 19 -14z m-219
-191 c10 -12 10 -18 0 -30 -12 -14 -15 -14 -31 1 -14 13 -16 20 -8 31 15 17
24 17 39 -2z m-578 -41 c-14 -10 -20 -10 -31 1 -12 12 -12 17 -1 30 12 14 15
14 31 -1 18 -16 18 -18 1 -30z m286 14 c2 -16 -1 -28 -7 -28 -6 0 -11 6 -11
14 0 8 -4 18 -10 21 -6 3 -10 -5 -10 -18 0 -16 7 -26 20 -30 16 -4 20 -14 20
-51 0 -44 -1 -46 -30 -46 l-30 0 0 86 0 85 28 -3 c21 -2 28 -9 30 -30z"/>
<path d="M280 4040 c0 -18 4 -29 10 -25 6 3 10 15 10 25 0 10 -4 22 -10 25 -6
4 -10 -7 -10 -25z"/>
<path d="M880 3395 c0 -14 5 -25 10 -25 6 0 10 11 10 25 0 14 -4 25 -10 25 -5
0 -10 -11 -10 -25z"/>
<path d="M1214 2953 c-76 -6 -88 -24 -93 -135 -6 -156 15 -178 169 -178 155 0
175 21 169 179 -5 117 -14 127 -119 133 -41 2 -98 3 -126 1z"/>
<path d="M1784 2953 c-76 -6 -88 -24 -93 -135 -6 -156 15 -178 169 -178 155 0
175 21 169 179 -5 117 -14 127 -119 133 -41 2 -98 3 -126 1z"/>
<path d="M2394 2953 c-76 -6 -88 -24 -93 -135 -6 -156 15 -178 169 -178 155 0
175 21 169 179 -5 117 -14 127 -119 133 -41 2 -98 3 -126 1z"/>
<path d="M2974 2953 c-76 -6 -88 -24 -93 -135 -6 -156 15 -178 169 -178 155 0
175 21 169 179 -5 117 -14 127 -119 133 -41 2 -98 3 -126 1z"/>
<path d="M3524 2953 c-76 -6 -88 -24 -93 -135 -6 -156 15 -178 169 -178 155 0
175 21 169 179 -5 117 -14 127 -119 133 -41 2 -98 3 -126 1z"/>
<path d="M1214 2383 c-76 -6 -88 -23 -92 -138 -4 -104 10 -149 54 -165 14 -6
65 -10 114 -10 106 0 134 9 155 51 25 48 18 211 -10 238 -22 20 -121 31 -221
24z"/>
<path d="M1784 2383 c-76 -6 -88 -23 -92 -138 -4 -104 10 -149 54 -165 33 -13
195 -13 228 0 44 16 58 61 54 166 -4 120 -13 130 -118 136 -41 2 -98 3 -126 1z"/>
<path d="M2394 2383 c-76 -6 -88 -23 -92 -138 -4 -104 10 -149 54 -165 33 -13
195 -13 228 0 44 16 58 61 54 166 -4 120 -13 130 -118 136 -41 2 -98 3 -126 1z"/>
<path d="M2974 2383 c-76 -6 -88 -23 -92 -138 -4 -104 10 -149 54 -165 14 -6
65 -10 114 -10 106 0 134 9 155 51 25 48 18 211 -10 238 -22 20 -121 31 -221
24z"/>
<path d="M3524 2383 c-76 -6 -88 -23 -92 -138 -4 -104 10 -149 54 -165 14 -6
65 -10 114 -10 106 0 134 9 155 51 25 48 18 211 -10 238 -22 20 -121 31 -221
24z"/>
<path d="M1214 1813 c-76 -6 -88 -23 -92 -138 -4 -104 10 -149 54 -165 14 -6
65 -10 114 -10 106 0 134 9 155 51 25 48 18 211 -10 238 -22 20 -121 31 -221
24z"/>
<path d="M1784 1813 c-76 -6 -88 -23 -92 -138 -4 -104 10 -149 54 -165 33 -13
195 -13 228 0 44 16 58 61 54 166 -4 120 -13 130 -118 136 -41 2 -98 3 -126 1z"/>
<path d="M2394 1813 c-76 -6 -88 -23 -92 -138 -4 -104 10 -149 54 -165 33 -13
195 -13 228 0 44 16 58 61 54 166 -4 120 -13 130 -118 136 -41 2 -98 3 -126 1z"/>
<path d="M2974 1813 c-76 -6 -88 -23 -92 -138 -4 -104 10 -149 54 -165 14 -6
65 -10 114 -10 106 0 134 9 155 51 25 48 18 211 -10 238 -22 20 -121 31 -221
24z"/>
</g>
</svg>
